<mxfile host="65bd71144e">
    <diagram id="BA0bxAg9zyMTIQy8KdcD" name="Page-1">
        <mxGraphModel dx="19982" dy="12214" grid="1" gridSize="10" guides="1" tooltips="1" connect="1" arrows="1" fold="1" page="1" pageScale="1" pageWidth="850" pageHeight="1100" math="0" shadow="0">
            <root>
                <mxCell id="0"/>
                <mxCell id="1" parent="0"/>
                <mxCell id="118" value="" style="rounded=0;whiteSpace=wrap;html=1;movable=0;resizable=0;rotatable=0;deletable=0;editable=0;locked=1;connectable=0;" parent="1" vertex="1">
                    <mxGeometry x="-17130" y="-10790" width="40490" height="30480" as="geometry"/>
                </mxCell>
                <mxCell id="30" value="" style="edgeStyle=none;html=1;" parent="1" source="24" target="29" edge="1">
                    <mxGeometry relative="1" as="geometry"/>
                </mxCell>
                <mxCell id="24" value="Sensor" style="ellipse;whiteSpace=wrap;html=1;aspect=fixed;fillColor=#dae8fc;strokeColor=#6c8ebf;" parent="1" vertex="1">
                    <mxGeometry x="-20" y="630" width="60" height="60" as="geometry"/>
                </mxCell>
                <mxCell id="29" value="Esp32" style="shape=process;whiteSpace=wrap;html=1;backgroundOutline=1;fillColor=#d5e8d4;strokeColor=#82b366;size=0.08333333333333333;" parent="1" vertex="1">
                    <mxGeometry x="110" y="630" width="120" height="60" as="geometry"/>
                </mxCell>
                <mxCell id="31" value="Firebase" style="shape=cylinder3;whiteSpace=wrap;html=1;boundedLbl=1;backgroundOutline=1;size=15;fillColor=#ffe6cc;strokeColor=#d79b00;" parent="1" vertex="1">
                    <mxGeometry x="320" y="620" width="60" height="80" as="geometry"/>
                </mxCell>
                <mxCell id="32" style="edgeStyle=none;html=1;entryX=0;entryY=0.5;entryDx=0;entryDy=0;entryPerimeter=0;" parent="1" source="29" target="31" edge="1">
                    <mxGeometry relative="1" as="geometry"/>
                </mxCell>
                <mxCell id="38" value="" style="group;fillColor=#e1d5e7;strokeColor=#9673a6;" parent="1" vertex="1" connectable="0">
                    <mxGeometry x="290" y="760" width="120" height="80" as="geometry"/>
                </mxCell>
                <mxCell id="36" value="Website" style="rounded=0;whiteSpace=wrap;html=1;fillColor=#ffe6cc;strokeColor=#d79b00;" parent="38" vertex="1">
                    <mxGeometry width="120" height="20" as="geometry"/>
                </mxCell>
                <mxCell id="37" value="dashboard admin" style="rounded=0;whiteSpace=wrap;html=1;fillColor=#e1d5e7;strokeColor=#9673a6;" parent="38" vertex="1">
                    <mxGeometry y="20" width="120" height="60" as="geometry"/>
                </mxCell>
                <mxCell id="39" style="edgeStyle=none;html=1;entryX=1.024;entryY=0.655;entryDx=0;entryDy=0;entryPerimeter=0;exitX=0;exitY=0.625;exitDx=0;exitDy=0;exitPerimeter=0;" parent="1" source="31" target="29" edge="1">
                    <mxGeometry relative="1" as="geometry">
                        <mxPoint x="300" y="670" as="sourcePoint"/>
                        <mxPoint x="320" y="670" as="targetPoint"/>
                    </mxGeometry>
                </mxCell>
                <mxCell id="49" value="" style="group" parent="1" vertex="1" connectable="0">
                    <mxGeometry x="470" y="600" width="70" height="120" as="geometry"/>
                </mxCell>
                <mxCell id="42" value="Mobile&lt;div&gt;apps&lt;/div&gt;" style="rounded=0;whiteSpace=wrap;html=1;fillColor=#e1d5e7;strokeColor=#9673a6;" parent="49" vertex="1">
                    <mxGeometry width="70" height="120" as="geometry"/>
                </mxCell>
                <mxCell id="43" value="" style="rounded=0;whiteSpace=wrap;html=1;fillColor=#ffe6cc;strokeColor=#d79b00;" parent="49" vertex="1">
                    <mxGeometry y="100" width="70" height="20" as="geometry"/>
                </mxCell>
                <mxCell id="45" value="" style="whiteSpace=wrap;html=1;aspect=fixed;strokeColor=#d6b656;fillColor=#fff2cc;" parent="49" vertex="1">
                    <mxGeometry x="10" y="105" width="10" height="10" as="geometry"/>
                </mxCell>
                <mxCell id="46" value="" style="whiteSpace=wrap;html=1;aspect=fixed;strokeColor=#d6b656;fillColor=#fff2cc;" parent="49" vertex="1">
                    <mxGeometry x="30" y="105" width="10" height="10" as="geometry"/>
                </mxCell>
                <mxCell id="47" value="" style="whiteSpace=wrap;html=1;aspect=fixed;strokeColor=#d6b656;fillColor=#fff2cc;" parent="49" vertex="1">
                    <mxGeometry x="50" y="105" width="10" height="10" as="geometry"/>
                </mxCell>
                <mxCell id="48" value="" style="rounded=0;whiteSpace=wrap;html=1;fillColor=#ffe6cc;strokeColor=#d79b00;" parent="49" vertex="1">
                    <mxGeometry width="70" height="10" as="geometry"/>
                </mxCell>
                <mxCell id="51" style="edgeStyle=none;html=1;entryX=0.416;entryY=1.107;entryDx=0;entryDy=0;entryPerimeter=0;exitX=0.333;exitY=0;exitDx=0;exitDy=0;exitPerimeter=0;" parent="1" edge="1">
                    <mxGeometry relative="1" as="geometry">
                        <mxPoint x="345.44" y="758.3199999999999" as="sourcePoint"/>
                        <mxPoint x="344.44" y="700.3199999999999" as="targetPoint"/>
                    </mxGeometry>
                </mxCell>
                <mxCell id="52" style="edgeStyle=none;html=1;exitX=0.557;exitY=1.084;exitDx=0;exitDy=0;exitPerimeter=0;entryX=0.5;entryY=0;entryDx=0;entryDy=0;entryPerimeter=0;" parent="1" edge="1">
                    <mxGeometry relative="1" as="geometry">
                        <mxPoint x="354.44" y="700.3199999999999" as="sourcePoint"/>
                        <mxPoint x="355.44" y="758.3199999999999" as="targetPoint"/>
                    </mxGeometry>
                </mxCell>
                <mxCell id="55" style="edgeStyle=none;html=1;entryX=0;entryY=0.5;entryDx=0;entryDy=0;entryPerimeter=0;" parent="1" edge="1">
                    <mxGeometry relative="1" as="geometry">
                        <mxPoint x="380" y="660" as="sourcePoint"/>
                        <mxPoint x="470" y="660" as="targetPoint"/>
                    </mxGeometry>
                </mxCell>
                <mxCell id="56" style="edgeStyle=none;html=1;entryX=1.024;entryY=0.655;entryDx=0;entryDy=0;entryPerimeter=0;exitX=0;exitY=0.625;exitDx=0;exitDy=0;exitPerimeter=0;" parent="1" edge="1">
                    <mxGeometry relative="1" as="geometry">
                        <mxPoint x="470" y="670" as="sourcePoint"/>
                        <mxPoint x="383" y="669" as="targetPoint"/>
                    </mxGeometry>
                </mxCell>
                <mxCell id="58" value="User" style="text;html=1;align=center;verticalAlign=middle;resizable=0;points=[];autosize=1;strokeColor=none;fillColor=none;fontSize=9;" parent="1" vertex="1">
                    <mxGeometry x="485" y="720" width="40" height="20" as="geometry"/>
                </mxCell>
                <mxCell id="60" value="Admin" style="text;html=1;align=center;verticalAlign=middle;resizable=0;points=[];autosize=1;strokeColor=none;fillColor=none;fontSize=9;" parent="1" vertex="1">
                    <mxGeometry x="315" y="840" width="50" height="20" as="geometry"/>
                </mxCell>
                <mxCell id="61" value="Kirim data" style="text;html=1;align=center;verticalAlign=middle;resizable=0;points=[];autosize=1;strokeColor=none;fillColor=none;fontSize=9;" parent="1" vertex="1">
                    <mxGeometry x="34" y="630" width="60" height="20" as="geometry"/>
                </mxCell>
                <mxCell id="62" value="&lt;span style=&quot;color: rgb(0, 0, 0);&quot;&gt;Request&lt;/span&gt;" style="text;html=1;align=center;verticalAlign=middle;resizable=0;points=[];autosize=1;strokeColor=none;fillColor=none;fontSize=9;" parent="1" vertex="1">
                    <mxGeometry x="240" y="640" width="60" height="20" as="geometry"/>
                </mxCell>
                <mxCell id="63" value="&lt;span style=&quot;color: rgb(0, 0, 0);&quot;&gt;Response&lt;/span&gt;" style="text;html=1;align=center;verticalAlign=middle;resizable=0;points=[];autosize=1;strokeColor=none;fillColor=none;fontSize=9;" parent="1" vertex="1">
                    <mxGeometry x="240" y="670" width="60" height="20" as="geometry"/>
                </mxCell>
                <mxCell id="64" value="&lt;span style=&quot;color: rgb(0, 0, 0);&quot;&gt;Request&lt;/span&gt;" style="text;html=1;align=center;verticalAlign=middle;resizable=0;points=[];autosize=1;strokeColor=none;fillColor=none;fontSize=9;" parent="1" vertex="1">
                    <mxGeometry x="395" y="640" width="60" height="20" as="geometry"/>
                </mxCell>
                <mxCell id="65" value="&lt;span style=&quot;color: rgb(0, 0, 0);&quot;&gt;Response&lt;/span&gt;" style="text;html=1;align=center;verticalAlign=middle;resizable=0;points=[];autosize=1;strokeColor=none;fillColor=none;fontSize=9;" parent="1" vertex="1">
                    <mxGeometry x="395" y="670" width="60" height="20" as="geometry"/>
                </mxCell>
                <mxCell id="66" value="&lt;span style=&quot;color: rgb(0, 0, 0);&quot;&gt;Request&lt;/span&gt;" style="text;html=1;align=center;verticalAlign=middle;resizable=0;points=[];autosize=1;strokeColor=none;fillColor=none;fontSize=9;rotation=-90;" parent="1" vertex="1">
                    <mxGeometry x="305" y="720" width="60" height="20" as="geometry"/>
                </mxCell>
                <mxCell id="67" value="&lt;span style=&quot;color: rgb(0, 0, 0);&quot;&gt;Response&lt;/span&gt;" style="text;html=1;align=center;verticalAlign=middle;resizable=0;points=[];autosize=1;strokeColor=none;fillColor=none;fontSize=9;rotation=-90;" parent="1" vertex="1">
                    <mxGeometry x="335" y="715" width="60" height="20" as="geometry"/>
                </mxCell>
                <mxCell id="77" value="" style="edgeStyle=none;html=1;" parent="1" source="68" target="73" edge="1">
                    <mxGeometry relative="1" as="geometry"/>
                </mxCell>
                <mxCell id="68" value="Mulai" style="rounded=1;whiteSpace=wrap;html=1;arcSize=50;fillColor=#dae8fc;strokeColor=#6c8ebf;" parent="1" vertex="1">
                    <mxGeometry x="841.25" y="530" width="90" height="40" as="geometry"/>
                </mxCell>
                <mxCell id="76" value="" style="edgeStyle=none;html=1;" parent="1" source="73" target="75" edge="1">
                    <mxGeometry relative="1" as="geometry"/>
                </mxCell>
                <mxCell id="73" value="Hubungkan jaringan" style="rounded=1;whiteSpace=wrap;html=1;absoluteArcSize=1;arcSize=6;strokeWidth=2;fillColor=#ffe6cc;strokeColor=#d79b00;" parent="1" vertex="1">
                    <mxGeometry x="818.75" y="610" width="135" height="50" as="geometry"/>
                </mxCell>
                <mxCell id="92" style="edgeStyle=none;html=1;entryX=0.5;entryY=0;entryDx=0;entryDy=0;" parent="1" source="74" target="88" edge="1">
                    <mxGeometry relative="1" as="geometry"/>
                </mxCell>
                <mxCell id="74" value="kelembapan" style="shape=parallelogram;html=1;strokeWidth=2;perimeter=parallelogramPerimeter;whiteSpace=wrap;rounded=1;arcSize=12;size=0.23;fillColor=#d5e8d4;strokeColor=#82b366;" parent="1" vertex="1">
                    <mxGeometry x="741.2500000000001" y="780" width="178.75" height="50" as="geometry"/>
                </mxCell>
                <mxCell id="108" value="" style="edgeStyle=none;html=1;" parent="1" source="75" target="107" edge="1">
                    <mxGeometry relative="1" as="geometry"/>
                </mxCell>
                <mxCell id="109" value="Ya" style="edgeLabel;html=1;align=center;verticalAlign=middle;resizable=0;points=[];" parent="108" vertex="1" connectable="0">
                    <mxGeometry x="-0.2245" y="-1" relative="1" as="geometry">
                        <mxPoint as="offset"/>
                    </mxGeometry>
                </mxCell>
                <mxCell id="110" style="edgeStyle=none;html=1;entryX=0.5;entryY=1;entryDx=0;entryDy=0;" parent="1" source="75" target="73" edge="1">
                    <mxGeometry relative="1" as="geometry">
                        <Array as="points">
                            <mxPoint x="1041.25" y="720"/>
                            <mxPoint x="886.25" y="720"/>
                        </Array>
                    </mxGeometry>
                </mxCell>
                <mxCell id="111" value="Tidak" style="edgeLabel;html=1;align=center;verticalAlign=middle;resizable=0;points=[];" parent="110" vertex="1" connectable="0">
                    <mxGeometry x="0.0221" y="2" relative="1" as="geometry">
                        <mxPoint as="offset"/>
                    </mxGeometry>
                </mxCell>
                <mxCell id="75" value="Wi-fi" style="strokeWidth=2;html=1;shape=mxgraph.flowchart.decision;whiteSpace=wrap;fillColor=#f8cecc;strokeColor=#b85450;" parent="1" vertex="1">
                    <mxGeometry x="991.25" y="585" width="100" height="100" as="geometry"/>
                </mxCell>
                <mxCell id="87" value="" style="edgeStyle=none;html=1;" parent="1" source="80" target="86" edge="1">
                    <mxGeometry relative="1" as="geometry"/>
                </mxCell>
                <mxCell id="80" value="Setup sensor" style="rounded=1;whiteSpace=wrap;html=1;absoluteArcSize=1;arcSize=6;strokeWidth=2;fillColor=#ffe6cc;strokeColor=#d79b00;" parent="1" vertex="1">
                    <mxGeometry x="1130.6200000000001" y="780" width="141.25" height="50" as="geometry"/>
                </mxCell>
                <mxCell id="90" value="" style="edgeStyle=none;html=1;" parent="1" source="86" target="74" edge="1">
                    <mxGeometry relative="1" as="geometry"/>
                </mxCell>
                <mxCell id="86" value="Proses data sensor" style="rounded=1;whiteSpace=wrap;html=1;absoluteArcSize=1;arcSize=6;strokeWidth=2;fillColor=#ffe6cc;strokeColor=#d79b00;" parent="1" vertex="1">
                    <mxGeometry x="950" y="780" width="141.25" height="50" as="geometry"/>
                </mxCell>
                <mxCell id="93" value="" style="edgeStyle=none;html=1;" parent="1" source="88" target="89" edge="1">
                    <mxGeometry relative="1" as="geometry"/>
                </mxCell>
                <mxCell id="88" value="suhu" style="shape=parallelogram;html=1;strokeWidth=2;perimeter=parallelogramPerimeter;whiteSpace=wrap;rounded=1;arcSize=12;size=0.23;fillColor=#d5e8d4;strokeColor=#82b366;" parent="1" vertex="1">
                    <mxGeometry x="740.0000000000001" y="940" width="178.75" height="50" as="geometry"/>
                </mxCell>
                <mxCell id="102" value="" style="edgeStyle=none;html=1;" parent="1" source="89" target="101" edge="1">
                    <mxGeometry relative="1" as="geometry"/>
                </mxCell>
                <mxCell id="89" value="tinggi" style="shape=parallelogram;html=1;strokeWidth=2;perimeter=parallelogramPerimeter;whiteSpace=wrap;rounded=1;arcSize=12;size=0.23;fillColor=#d5e8d4;strokeColor=#82b366;" parent="1" vertex="1">
                    <mxGeometry x="940.0000000000001" y="940" width="178.75" height="50" as="geometry"/>
                </mxCell>
                <mxCell id="115" style="edgeStyle=none;html=1;entryX=0.5;entryY=1;entryDx=0;entryDy=0;" parent="1" source="101" target="86" edge="1">
                    <mxGeometry relative="1" as="geometry">
                        <Array as="points">
                            <mxPoint x="1231.25" y="890"/>
                            <mxPoint x="1021.25" y="890"/>
                        </Array>
                    </mxGeometry>
                </mxCell>
                <mxCell id="101" value="kirim data ke database" style="rounded=1;whiteSpace=wrap;html=1;absoluteArcSize=1;arcSize=6;strokeWidth=2;fillColor=#ffe6cc;strokeColor=#d79b00;" parent="1" vertex="1">
                    <mxGeometry x="1160" y="940" width="141.25" height="50" as="geometry"/>
                </mxCell>
                <mxCell id="112" value="" style="edgeStyle=none;html=1;" parent="1" source="107" target="80" edge="1">
                    <mxGeometry relative="1" as="geometry"/>
                </mxCell>
                <mxCell id="113" value="Ya" style="edgeLabel;html=1;align=center;verticalAlign=middle;resizable=0;points=[];" parent="112" vertex="1" connectable="0">
                    <mxGeometry x="-0.1997" relative="1" as="geometry">
                        <mxPoint as="offset"/>
                    </mxGeometry>
                </mxCell>
                <mxCell id="107" value="Firebase" style="strokeWidth=2;html=1;shape=mxgraph.flowchart.decision;whiteSpace=wrap;fillColor=#f8cecc;strokeColor=#b85450;" parent="1" vertex="1">
                    <mxGeometry x="1151.25" y="585" width="100" height="100" as="geometry"/>
                </mxCell>
                <mxCell id="116" style="edgeStyle=none;html=1;entryX=0.5;entryY=0;entryDx=0;entryDy=0;entryPerimeter=0;" parent="1" source="107" target="75" edge="1">
                    <mxGeometry relative="1" as="geometry">
                        <Array as="points">
                            <mxPoint x="1201.25" y="560"/>
                            <mxPoint x="1041.25" y="560"/>
                        </Array>
                    </mxGeometry>
                </mxCell>
                <mxCell id="117" value="Tidak" style="edgeLabel;html=1;align=center;verticalAlign=middle;resizable=0;points=[];" parent="116" vertex="1" connectable="0">
                    <mxGeometry x="-0.0747" y="-2" relative="1" as="geometry">
                        <mxPoint as="offset"/>
                    </mxGeometry>
                </mxCell>
                <mxCell id="119" value="Diagram Blobl Syste," style="text;strokeColor=none;align=center;fillColor=none;html=1;verticalAlign=middle;whiteSpace=wrap;rounded=0;" parent="1" vertex="1">
                    <mxGeometry x="180" y="540" width="200" height="30" as="geometry"/>
                </mxCell>
                <mxCell id="120" value="Diagram Alir Esp32" style="text;strokeColor=none;align=center;fillColor=none;html=1;verticalAlign=middle;whiteSpace=wrap;rounded=0;" parent="1" vertex="1">
                    <mxGeometry x="920.62" y="450" width="200" height="30" as="geometry"/>
                </mxCell>
                <mxCell id="121" value="" style="edgeStyle=none;html=1;" parent="1" source="122" target="124" edge="1">
                    <mxGeometry relative="1" as="geometry"/>
                </mxCell>
                <mxCell id="122" value="Mulai" style="rounded=1;whiteSpace=wrap;html=1;arcSize=50;fillColor=#dae8fc;strokeColor=#6c8ebf;" parent="1" vertex="1">
                    <mxGeometry x="1665.25" y="535" width="90" height="40" as="geometry"/>
                </mxCell>
                <mxCell id="123" value="" style="edgeStyle=none;html=1;" parent="1" source="124" target="131" edge="1">
                    <mxGeometry relative="1" as="geometry"/>
                </mxCell>
                <mxCell id="124" value="--" style="rounded=1;whiteSpace=wrap;html=1;absoluteArcSize=1;arcSize=6;strokeWidth=2;fillColor=#ffe6cc;strokeColor=#d79b00;" parent="1" vertex="1">
                    <mxGeometry x="1642.75" y="615" width="135" height="50" as="geometry"/>
                </mxCell>
                <mxCell id="126" value="--" style="shape=parallelogram;html=1;strokeWidth=2;perimeter=parallelogramPerimeter;whiteSpace=wrap;rounded=1;arcSize=12;size=0.23;fillColor=#d5e8d4;strokeColor=#82b366;" parent="1" vertex="1">
                    <mxGeometry x="1960" y="615" width="178.75" height="50" as="geometry"/>
                </mxCell>
                <mxCell id="127" value="" style="edgeStyle=none;html=1;" parent="1" source="131" edge="1">
                    <mxGeometry relative="1" as="geometry">
                        <mxPoint x="1975.25" y="640.0000000000005" as="targetPoint"/>
                    </mxGeometry>
                </mxCell>
                <mxCell id="128" value="Ya" style="edgeLabel;html=1;align=center;verticalAlign=middle;resizable=0;points=[];" parent="127" vertex="1" connectable="0">
                    <mxGeometry x="-0.2245" y="-1" relative="1" as="geometry">
                        <mxPoint as="offset"/>
                    </mxGeometry>
                </mxCell>
                <mxCell id="129" style="edgeStyle=none;html=1;entryX=0.5;entryY=1;entryDx=0;entryDy=0;" parent="1" source="131" target="124" edge="1">
                    <mxGeometry relative="1" as="geometry">
                        <Array as="points">
                            <mxPoint x="1865.25" y="725"/>
                            <mxPoint x="1710.25" y="725"/>
                        </Array>
                    </mxGeometry>
                </mxCell>
                <mxCell id="130" value="Tidak" style="edgeLabel;html=1;align=center;verticalAlign=middle;resizable=0;points=[];" parent="129" vertex="1" connectable="0">
                    <mxGeometry x="0.0221" y="2" relative="1" as="geometry">
                        <mxPoint as="offset"/>
                    </mxGeometry>
                </mxCell>
                <mxCell id="131" value="--" style="strokeWidth=2;html=1;shape=mxgraph.flowchart.decision;whiteSpace=wrap;fillColor=#f8cecc;strokeColor=#b85450;" parent="1" vertex="1">
                    <mxGeometry x="1815.25" y="590" width="100" height="100" as="geometry"/>
                </mxCell>
                <mxCell id="147" value="Diagram Alir Aplikasi" style="text;strokeColor=none;align=center;fillColor=none;html=1;verticalAlign=middle;whiteSpace=wrap;rounded=0;" parent="1" vertex="1">
                    <mxGeometry x="1744.62" y="455" width="200" height="30" as="geometry"/>
                </mxCell>
                <mxCell id="174" value="Diagram Alir Website" style="text;strokeColor=none;align=center;fillColor=none;html=1;verticalAlign=middle;whiteSpace=wrap;rounded=0;" parent="1" vertex="1">
                    <mxGeometry x="2580.62" y="455" width="200" height="30" as="geometry"/>
                </mxCell>
                <mxCell id="176" value="" style="edgeStyle=none;html=1;" parent="1" source="177" target="179" edge="1">
                    <mxGeometry relative="1" as="geometry"/>
                </mxCell>
                <mxCell id="177" value="Mulai" style="rounded=1;whiteSpace=wrap;html=1;arcSize=50;fillColor=#dae8fc;strokeColor=#6c8ebf;" parent="1" vertex="1">
                    <mxGeometry x="2455.12" y="535" width="90" height="40" as="geometry"/>
                </mxCell>
                <mxCell id="178" value="" style="edgeStyle=none;html=1;" parent="1" source="179" target="185" edge="1">
                    <mxGeometry relative="1" as="geometry"/>
                </mxCell>
                <mxCell id="179" value="--" style="rounded=1;whiteSpace=wrap;html=1;absoluteArcSize=1;arcSize=6;strokeWidth=2;fillColor=#ffe6cc;strokeColor=#d79b00;" parent="1" vertex="1">
                    <mxGeometry x="2432.62" y="615" width="135" height="50" as="geometry"/>
                </mxCell>
                <mxCell id="180" value="--" style="shape=parallelogram;html=1;strokeWidth=2;perimeter=parallelogramPerimeter;whiteSpace=wrap;rounded=1;arcSize=12;size=0.23;fillColor=#d5e8d4;strokeColor=#82b366;" parent="1" vertex="1">
                    <mxGeometry x="2749.87" y="615" width="178.75" height="50" as="geometry"/>
                </mxCell>
                <mxCell id="181" value="" style="edgeStyle=none;html=1;" parent="1" source="185" edge="1">
                    <mxGeometry relative="1" as="geometry">
                        <mxPoint x="2765.12" y="640.0000000000005" as="targetPoint"/>
                    </mxGeometry>
                </mxCell>
                <mxCell id="182" value="Ya" style="edgeLabel;html=1;align=center;verticalAlign=middle;resizable=0;points=[];" parent="181" vertex="1" connectable="0">
                    <mxGeometry x="-0.2245" y="-1" relative="1" as="geometry">
                        <mxPoint as="offset"/>
                    </mxGeometry>
                </mxCell>
                <mxCell id="183" style="edgeStyle=none;html=1;entryX=0.5;entryY=1;entryDx=0;entryDy=0;" parent="1" source="185" target="179" edge="1">
                    <mxGeometry relative="1" as="geometry">
                        <Array as="points">
                            <mxPoint x="2655.12" y="725"/>
                            <mxPoint x="2500.12" y="725"/>
                        </Array>
                    </mxGeometry>
                </mxCell>
                <mxCell id="184" value="Tidak" style="edgeLabel;html=1;align=center;verticalAlign=middle;resizable=0;points=[];" parent="183" vertex="1" connectable="0">
                    <mxGeometry x="0.0221" y="2" relative="1" as="geometry">
                        <mxPoint as="offset"/>
                    </mxGeometry>
                </mxCell>
                <mxCell id="185" value="--" style="strokeWidth=2;html=1;shape=mxgraph.flowchart.decision;whiteSpace=wrap;fillColor=#f8cecc;strokeColor=#b85450;" parent="1" vertex="1">
                    <mxGeometry x="2605.12" y="590" width="100" height="100" as="geometry"/>
                </mxCell>
                <mxCell id="509" value="Sumber arus" style="text;strokeColor=none;align=center;fillColor=none;html=1;verticalAlign=middle;whiteSpace=wrap;rounded=0;" vertex="1" parent="1">
                    <mxGeometry x="3340" y="440" width="200" height="30" as="geometry"/>
                </mxCell>
                <mxCell id="510" value="" style="group" vertex="1" connectable="0" parent="1">
                    <mxGeometry x="3350" y="1040" width="120" height="90" as="geometry"/>
                </mxCell>
                <mxCell id="511" value="" style="rounded=0;whiteSpace=wrap;html=1;fillColor=#fad7ac;strokeColor=#b46504;" vertex="1" parent="510">
                    <mxGeometry y="30" width="120" height="60" as="geometry"/>
                </mxCell>
                <mxCell id="512" value="" style="ellipse;whiteSpace=wrap;html=1;aspect=fixed;fillColor=#fad7ac;strokeColor=#b46504;" vertex="1" parent="510">
                    <mxGeometry x="10" y="40" width="40" height="40" as="geometry"/>
                </mxCell>
                <mxCell id="513" value="" style="ellipse;whiteSpace=wrap;html=1;aspect=fixed;fillColor=#fad7ac;strokeColor=#b46504;" vertex="1" parent="510">
                    <mxGeometry x="70" y="40" width="40" height="40" as="geometry"/>
                </mxCell>
                <mxCell id="517" value="" style="endArrow=none;dashed=1;html=1;dashPattern=1 3;strokeWidth=2;strokeColor=#B3B3B3;" edge="1" parent="1">
                    <mxGeometry width="50" height="50" relative="1" as="geometry">
                        <mxPoint x="3330" y="1180" as="sourcePoint"/>
                        <mxPoint x="3330" y="1020" as="targetPoint"/>
                    </mxGeometry>
                </mxCell>
                <mxCell id="518" value="" style="endArrow=none;dashed=1;html=1;dashPattern=1 3;strokeWidth=2;strokeColor=#B3B3B3;" edge="1" parent="1">
                    <mxGeometry width="50" height="50" relative="1" as="geometry">
                        <mxPoint x="3565" y="1180" as="sourcePoint"/>
                        <mxPoint x="3565" y="1020" as="targetPoint"/>
                    </mxGeometry>
                </mxCell>
                <mxCell id="519" value="" style="endArrow=none;dashed=1;html=1;dashPattern=1 3;strokeWidth=2;strokeColor=#B3B3B3;" edge="1" parent="1">
                    <mxGeometry width="50" height="50" relative="1" as="geometry">
                        <mxPoint x="3560" y="1020" as="sourcePoint"/>
                        <mxPoint x="3330" y="1020" as="targetPoint"/>
                    </mxGeometry>
                </mxCell>
                <mxCell id="520" value="" style="endArrow=none;dashed=1;html=1;dashPattern=1 3;strokeWidth=2;strokeColor=#B3B3B3;" edge="1" parent="1">
                    <mxGeometry width="50" height="50" relative="1" as="geometry">
                        <mxPoint x="3560" y="1180" as="sourcePoint"/>
                        <mxPoint x="3330" y="1180" as="targetPoint"/>
                    </mxGeometry>
                </mxCell>
                <mxCell id="531" value="DHT22" style="text;html=1;align=center;verticalAlign=middle;whiteSpace=wrap;rounded=0;" vertex="1" parent="1">
                    <mxGeometry x="3500" y="1130" width="60" height="30" as="geometry"/>
                </mxCell>
                <mxCell id="532" value="Tong Compose" style="text;html=1;align=center;verticalAlign=middle;whiteSpace=wrap;rounded=0;" vertex="1" parent="1">
                    <mxGeometry x="3385" y="1150" width="130" height="30" as="geometry"/>
                </mxCell>
                <mxCell id="548" value="" style="endArrow=none;dashed=1;html=1;dashPattern=1 3;strokeWidth=2;strokeColor=#B3B3B3;" edge="1" parent="1">
                    <mxGeometry width="50" height="50" relative="1" as="geometry">
                        <mxPoint x="3605" y="1000" as="sourcePoint"/>
                        <mxPoint x="3604" y="870" as="targetPoint"/>
                    </mxGeometry>
                </mxCell>
                <mxCell id="549" value="" style="endArrow=none;dashed=1;html=1;dashPattern=1 3;strokeWidth=2;strokeColor=#B3B3B3;" edge="1" parent="1">
                    <mxGeometry width="50" height="50" relative="1" as="geometry">
                        <mxPoint x="3775" y="870" as="sourcePoint"/>
                        <mxPoint x="3604" y="870" as="targetPoint"/>
                    </mxGeometry>
                </mxCell>
                <mxCell id="550" value="Tong Sampah Plastik +&amp;nbsp; kertas" style="text;html=1;align=center;verticalAlign=middle;whiteSpace=wrap;rounded=0;" vertex="1" parent="1">
                    <mxGeometry x="3600" y="840" width="184" height="30" as="geometry"/>
                </mxCell>
                <mxCell id="551" value="" style="endArrow=none;dashed=1;html=1;dashPattern=1 3;strokeWidth=2;strokeColor=#B3B3B3;" edge="1" parent="1">
                    <mxGeometry width="50" height="50" relative="1" as="geometry">
                        <mxPoint x="3776" y="1000" as="sourcePoint"/>
                        <mxPoint x="3775" y="870" as="targetPoint"/>
                    </mxGeometry>
                </mxCell>
                <mxCell id="552" value="" style="endArrow=none;dashed=1;html=1;dashPattern=1 3;strokeWidth=2;strokeColor=#B3B3B3;" edge="1" parent="1">
                    <mxGeometry width="50" height="50" relative="1" as="geometry">
                        <mxPoint x="3780" y="1000" as="sourcePoint"/>
                        <mxPoint x="3609" y="1000" as="targetPoint"/>
                    </mxGeometry>
                </mxCell>
                <mxCell id="601" value="Esp32" style="shape=process;whiteSpace=wrap;html=1;backgroundOutline=1;fillColor=#d5e8d4;strokeColor=#82b366;size=0.08333333333333333;" vertex="1" parent="1">
                    <mxGeometry x="3380" y="910.8499999999999" width="120" height="60" as="geometry"/>
                </mxCell>
                <mxCell id="603" value="" style="group" vertex="1" connectable="0" parent="1">
                    <mxGeometry x="3310" y="520" width="220" height="130" as="geometry"/>
                </mxCell>
                <mxCell id="604" value="" style="rounded=0;whiteSpace=wrap;html=1;fillColor=#fff2cc;strokeColor=#d6b656;" vertex="1" parent="603">
                    <mxGeometry x="100" y="120" width="20" height="10" as="geometry"/>
                </mxCell>
                <mxCell id="605" value="" style="group" vertex="1" connectable="0" parent="603">
                    <mxGeometry width="220" height="120" as="geometry"/>
                </mxCell>
                <mxCell id="606" value="" style="rounded=0;whiteSpace=wrap;html=1;fillColor=#dae8fc;strokeColor=#6c8ebf;" vertex="1" parent="605">
                    <mxGeometry width="220" height="120" as="geometry"/>
                </mxCell>
                <mxCell id="607" value="" style="rounded=0;whiteSpace=wrap;html=1;fillColor=#dae8fc;strokeColor=#6c8ebf;" vertex="1" parent="605">
                    <mxGeometry x="10" y="6.25" width="20" height="18.75" as="geometry"/>
                </mxCell>
                <mxCell id="608" value="" style="rounded=0;whiteSpace=wrap;html=1;fillColor=#dae8fc;strokeColor=#6c8ebf;" vertex="1" parent="605">
                    <mxGeometry x="10" y="35" width="20" height="18.75" as="geometry"/>
                </mxCell>
                <mxCell id="609" value="" style="rounded=0;whiteSpace=wrap;html=1;fillColor=#dae8fc;strokeColor=#6c8ebf;" vertex="1" parent="605">
                    <mxGeometry x="10" y="65" width="20" height="18.75" as="geometry"/>
                </mxCell>
                <mxCell id="610" value="" style="rounded=0;whiteSpace=wrap;html=1;fillColor=#dae8fc;strokeColor=#6c8ebf;" vertex="1" parent="605">
                    <mxGeometry x="10" y="95" width="20" height="18.75" as="geometry"/>
                </mxCell>
                <mxCell id="611" value="" style="rounded=0;whiteSpace=wrap;html=1;fillColor=#dae8fc;strokeColor=#6c8ebf;" vertex="1" parent="605">
                    <mxGeometry x="40" y="95" width="20" height="18.75" as="geometry"/>
                </mxCell>
                <mxCell id="612" value="" style="rounded=0;whiteSpace=wrap;html=1;fillColor=#dae8fc;strokeColor=#6c8ebf;" vertex="1" parent="605">
                    <mxGeometry x="40" y="65" width="20" height="18.75" as="geometry"/>
                </mxCell>
                <mxCell id="613" value="" style="rounded=0;whiteSpace=wrap;html=1;fillColor=#dae8fc;strokeColor=#6c8ebf;" vertex="1" parent="605">
                    <mxGeometry x="40" y="35" width="20" height="18.75" as="geometry"/>
                </mxCell>
                <mxCell id="614" value="" style="rounded=0;whiteSpace=wrap;html=1;fillColor=#dae8fc;strokeColor=#6c8ebf;" vertex="1" parent="605">
                    <mxGeometry x="40" y="6.25" width="20" height="18.75" as="geometry"/>
                </mxCell>
                <mxCell id="615" value="" style="rounded=0;whiteSpace=wrap;html=1;fillColor=#dae8fc;strokeColor=#6c8ebf;" vertex="1" parent="605">
                    <mxGeometry x="70" y="95" width="20" height="18.75" as="geometry"/>
                </mxCell>
                <mxCell id="616" value="" style="rounded=0;whiteSpace=wrap;html=1;fillColor=#dae8fc;strokeColor=#6c8ebf;" vertex="1" parent="605">
                    <mxGeometry x="70" y="65" width="20" height="18.75" as="geometry"/>
                </mxCell>
                <mxCell id="617" value="" style="rounded=0;whiteSpace=wrap;html=1;fillColor=#dae8fc;strokeColor=#6c8ebf;" vertex="1" parent="605">
                    <mxGeometry x="70" y="35" width="20" height="18.75" as="geometry"/>
                </mxCell>
                <mxCell id="618" value="" style="rounded=0;whiteSpace=wrap;html=1;fillColor=#dae8fc;strokeColor=#6c8ebf;" vertex="1" parent="605">
                    <mxGeometry x="70" y="6.25" width="20" height="18.75" as="geometry"/>
                </mxCell>
                <mxCell id="619" value="" style="rounded=0;whiteSpace=wrap;html=1;fillColor=#dae8fc;strokeColor=#6c8ebf;" vertex="1" parent="605">
                    <mxGeometry x="100" y="95" width="20" height="18.75" as="geometry"/>
                </mxCell>
                <mxCell id="620" value="" style="rounded=0;whiteSpace=wrap;html=1;fillColor=#dae8fc;strokeColor=#6c8ebf;" vertex="1" parent="605">
                    <mxGeometry x="100" y="65" width="20" height="18.75" as="geometry"/>
                </mxCell>
                <mxCell id="621" value="" style="rounded=0;whiteSpace=wrap;html=1;fillColor=#dae8fc;strokeColor=#6c8ebf;" vertex="1" parent="605">
                    <mxGeometry x="100" y="35" width="20" height="18.75" as="geometry"/>
                </mxCell>
                <mxCell id="622" value="" style="rounded=0;whiteSpace=wrap;html=1;fillColor=#dae8fc;strokeColor=#6c8ebf;" vertex="1" parent="605">
                    <mxGeometry x="100" y="6.25" width="20" height="18.75" as="geometry"/>
                </mxCell>
                <mxCell id="623" value="" style="rounded=0;whiteSpace=wrap;html=1;fillColor=#dae8fc;strokeColor=#6c8ebf;" vertex="1" parent="605">
                    <mxGeometry x="130" y="95" width="20" height="18.75" as="geometry"/>
                </mxCell>
                <mxCell id="624" value="" style="rounded=0;whiteSpace=wrap;html=1;fillColor=#dae8fc;strokeColor=#6c8ebf;" vertex="1" parent="605">
                    <mxGeometry x="130" y="65" width="20" height="18.75" as="geometry"/>
                </mxCell>
                <mxCell id="625" value="" style="rounded=0;whiteSpace=wrap;html=1;fillColor=#dae8fc;strokeColor=#6c8ebf;" vertex="1" parent="605">
                    <mxGeometry x="130" y="35" width="20" height="18.75" as="geometry"/>
                </mxCell>
                <mxCell id="626" value="" style="rounded=0;whiteSpace=wrap;html=1;fillColor=#dae8fc;strokeColor=#6c8ebf;" vertex="1" parent="605">
                    <mxGeometry x="130" y="6.25" width="20" height="18.75" as="geometry"/>
                </mxCell>
                <mxCell id="627" value="" style="rounded=0;whiteSpace=wrap;html=1;fillColor=#dae8fc;strokeColor=#6c8ebf;" vertex="1" parent="605">
                    <mxGeometry x="160" y="95" width="20" height="18.75" as="geometry"/>
                </mxCell>
                <mxCell id="628" value="" style="rounded=0;whiteSpace=wrap;html=1;fillColor=#dae8fc;strokeColor=#6c8ebf;" vertex="1" parent="605">
                    <mxGeometry x="160" y="65" width="20" height="18.75" as="geometry"/>
                </mxCell>
                <mxCell id="629" value="" style="rounded=0;whiteSpace=wrap;html=1;fillColor=#dae8fc;strokeColor=#6c8ebf;" vertex="1" parent="605">
                    <mxGeometry x="160" y="35" width="20" height="18.75" as="geometry"/>
                </mxCell>
                <mxCell id="630" value="" style="rounded=0;whiteSpace=wrap;html=1;fillColor=#dae8fc;strokeColor=#6c8ebf;" vertex="1" parent="605">
                    <mxGeometry x="160" y="6.25" width="20" height="18.75" as="geometry"/>
                </mxCell>
                <mxCell id="631" value="" style="rounded=0;whiteSpace=wrap;html=1;fillColor=#dae8fc;strokeColor=#6c8ebf;" vertex="1" parent="605">
                    <mxGeometry x="190" y="95" width="20" height="18.75" as="geometry"/>
                </mxCell>
                <mxCell id="632" value="" style="rounded=0;whiteSpace=wrap;html=1;fillColor=#dae8fc;strokeColor=#6c8ebf;" vertex="1" parent="605">
                    <mxGeometry x="190" y="65" width="20" height="18.75" as="geometry"/>
                </mxCell>
                <mxCell id="633" value="" style="rounded=0;whiteSpace=wrap;html=1;fillColor=#dae8fc;strokeColor=#6c8ebf;" vertex="1" parent="605">
                    <mxGeometry x="190" y="35" width="20" height="18.75" as="geometry"/>
                </mxCell>
                <mxCell id="634" value="" style="rounded=0;whiteSpace=wrap;html=1;fillColor=#dae8fc;strokeColor=#6c8ebf;" vertex="1" parent="605">
                    <mxGeometry x="190" y="6.25" width="20" height="18.75" as="geometry"/>
                </mxCell>
                <mxCell id="635" value="Panel surya" style="text;strokeColor=none;align=center;fillColor=none;html=1;verticalAlign=middle;whiteSpace=wrap;rounded=0;" vertex="1" parent="1">
                    <mxGeometry x="3320" y="490" width="200" height="30" as="geometry"/>
                </mxCell>
                <mxCell id="636" value="" style="group" vertex="1" connectable="0" parent="1">
                    <mxGeometry x="3300" y="680" width="200" height="95.11999999999989" as="geometry"/>
                </mxCell>
                <mxCell id="637" value="" style="group" vertex="1" connectable="0" parent="636">
                    <mxGeometry x="40" y="28.75" width="120" height="66.36999999999989" as="geometry"/>
                </mxCell>
                <mxCell id="638" value="" style="rounded=0;whiteSpace=wrap;html=1;fillColor=#fff2cc;strokeColor=#d6b656;" vertex="1" parent="637">
                    <mxGeometry width="120" height="60" as="geometry"/>
                </mxCell>
                <mxCell id="639" value="" style="rounded=0;whiteSpace=wrap;html=1;fillColor=#d5e8d4;strokeColor=#82b366;" vertex="1" parent="637">
                    <mxGeometry x="10" y="6.369999999999891" width="100" height="60" as="geometry"/>
                </mxCell>
                <mxCell id="640" value="" style="rounded=0;whiteSpace=wrap;html=1;fillColor=#fff2cc;strokeColor=#d6b656;" vertex="1" parent="637">
                    <mxGeometry x="20" y="16.36999999999989" width="80" height="20" as="geometry"/>
                </mxCell>
                <mxCell id="641" value="" style="rounded=0;whiteSpace=wrap;html=1;fillColor=#ffe6cc;strokeColor=#d79b00;" vertex="1" parent="637">
                    <mxGeometry x="20" y="36.36999999999989" width="50" height="10" as="geometry"/>
                </mxCell>
                <mxCell id="642" value="" style="rounded=0;whiteSpace=wrap;html=1;fillColor=#ffe6cc;strokeColor=#d79b00;" vertex="1" parent="637">
                    <mxGeometry x="70" y="36.36999999999989" width="30" height="10" as="geometry"/>
                </mxCell>
                <mxCell id="643" value="Solar Charge Controler" style="text;strokeColor=none;align=center;fillColor=none;html=1;verticalAlign=middle;whiteSpace=wrap;rounded=0;" vertex="1" parent="636">
                    <mxGeometry width="200" height="30" as="geometry"/>
                </mxCell>
                <mxCell id="644" value="" style="group" vertex="1" connectable="0" parent="1">
                    <mxGeometry x="3510" y="700" width="80" height="80" as="geometry"/>
                </mxCell>
                <mxCell id="645" value="" style="rounded=0;whiteSpace=wrap;html=1;fillColor=#ffe6cc;strokeColor=#d79b00;" vertex="1" parent="644">
                    <mxGeometry y="10" width="80" height="70" as="geometry"/>
                </mxCell>
                <mxCell id="646" value="" style="rounded=0;whiteSpace=wrap;html=1;fillColor=#fff2cc;strokeColor=#d6b656;" vertex="1" parent="644">
                    <mxGeometry x="5" y="10" width="70" height="60" as="geometry"/>
                </mxCell>
                <mxCell id="647" value="" style="rounded=0;whiteSpace=wrap;html=1;fillColor=#ffe6cc;strokeColor=#d79b00;" vertex="1" parent="644">
                    <mxGeometry x="30" width="20" height="10" as="geometry"/>
                </mxCell>
                <mxCell id="648" value="Baterai" style="text;strokeColor=none;align=center;fillColor=none;html=1;verticalAlign=middle;whiteSpace=wrap;rounded=0;" vertex="1" parent="1">
                    <mxGeometry x="3460" y="780" width="200" height="30" as="geometry"/>
                </mxCell>
                <mxCell id="651" value="" style="endArrow=none;html=1;strokeWidth=3;fillColor=#f8cecc;strokeColor=#b85450;entryX=0;entryY=0.5;entryDx=0;entryDy=0;exitX=0.5;exitY=1;exitDx=0;exitDy=0;" edge="1" source="604" target="638" parent="1">
                    <mxGeometry width="50" height="50" relative="1" as="geometry">
                        <mxPoint x="3600" y="810" as="sourcePoint"/>
                        <mxPoint x="3650" y="760" as="targetPoint"/>
                        <Array as="points">
                            <mxPoint x="3420" y="660"/>
                            <mxPoint x="3320" y="660"/>
                            <mxPoint x="3320" y="740"/>
                        </Array>
                    </mxGeometry>
                </mxCell>
                <mxCell id="652" value="" style="endArrow=none;dashed=1;html=1;dashPattern=1 3;strokeWidth=2;strokeColor=#B3B3B3;" edge="1" parent="1">
                    <mxGeometry width="50" height="50" relative="1" as="geometry">
                        <mxPoint x="3640" y="480" as="sourcePoint"/>
                        <mxPoint x="3280" y="480" as="targetPoint"/>
                    </mxGeometry>
                </mxCell>
                <mxCell id="653" value="" style="endArrow=none;dashed=1;html=1;dashPattern=1 3;strokeWidth=2;strokeColor=#B3B3B3;" edge="1" parent="1">
                    <mxGeometry width="50" height="50" relative="1" as="geometry">
                        <mxPoint x="3641.25" y="820" as="sourcePoint"/>
                        <mxPoint x="3281.25" y="820" as="targetPoint"/>
                    </mxGeometry>
                </mxCell>
                <mxCell id="654" value="" style="endArrow=none;dashed=1;html=1;dashPattern=1 3;strokeWidth=2;strokeColor=#B3B3B3;" edge="1" parent="1">
                    <mxGeometry width="50" height="50" relative="1" as="geometry">
                        <mxPoint x="3280" y="820" as="sourcePoint"/>
                        <mxPoint x="3280" y="480" as="targetPoint"/>
                    </mxGeometry>
                </mxCell>
                <mxCell id="655" value="" style="endArrow=none;dashed=1;html=1;dashPattern=1 3;strokeWidth=2;strokeColor=#B3B3B3;" edge="1" parent="1">
                    <mxGeometry width="50" height="50" relative="1" as="geometry">
                        <mxPoint x="3640" y="821.25" as="sourcePoint"/>
                        <mxPoint x="3640" y="480" as="targetPoint"/>
                    </mxGeometry>
                </mxCell>
                <mxCell id="656" value="" style="endArrow=none;html=1;exitX=1;exitY=0.5;exitDx=0;exitDy=0;entryX=0;entryY=0.5;entryDx=0;entryDy=0;fillColor=#f8cecc;strokeColor=#b85450;" edge="1" parent="1">
                    <mxGeometry width="50" height="50" relative="1" as="geometry">
                        <mxPoint x="3210" y="925.75" as="sourcePoint"/>
                        <mxPoint x="3380" y="924.75" as="targetPoint"/>
                    </mxGeometry>
                </mxCell>
                <mxCell id="657" value="VCC = 5V" style="edgeLabel;html=1;align=center;verticalAlign=middle;resizable=0;points=[];" vertex="1" connectable="0" parent="656">
                    <mxGeometry x="0.416" relative="1" as="geometry">
                        <mxPoint x="10" y="-4" as="offset"/>
                    </mxGeometry>
                </mxCell>
                <mxCell id="662" value="" style="endArrow=none;html=1;exitX=1;exitY=0.5;exitDx=0;exitDy=0;entryX=0;entryY=0.5;entryDx=0;entryDy=0;fillColor=#d5e8d4;strokeColor=#82b366;" edge="1" parent="1">
                    <mxGeometry width="50" height="50" relative="1" as="geometry">
                        <mxPoint x="3210" y="935.5" as="sourcePoint"/>
                        <mxPoint x="3380" y="934.5" as="targetPoint"/>
                    </mxGeometry>
                </mxCell>
                <mxCell id="663" value="ECHO = 4" style="edgeLabel;html=1;align=center;verticalAlign=middle;resizable=0;points=[];" vertex="1" connectable="0" parent="662">
                    <mxGeometry x="0.0706" relative="1" as="geometry">
                        <mxPoint x="39" y="1" as="offset"/>
                    </mxGeometry>
                </mxCell>
                <mxCell id="664" value="" style="endArrow=none;html=1;exitX=1;exitY=0.5;exitDx=0;exitDy=0;entryX=0;entryY=0.5;entryDx=0;entryDy=0;fillColor=#d5e8d4;strokeColor=#82b366;" edge="1" parent="1">
                    <mxGeometry width="50" height="50" relative="1" as="geometry">
                        <mxPoint x="3210" y="949.8800000000001" as="sourcePoint"/>
                        <mxPoint x="3380" y="948.8800000000001" as="targetPoint"/>
                    </mxGeometry>
                </mxCell>
                <mxCell id="665" value="TRIGER = 5" style="edgeLabel;html=1;align=center;verticalAlign=middle;resizable=0;points=[];" vertex="1" connectable="0" parent="664">
                    <mxGeometry x="-0.4911" y="-1" relative="1" as="geometry">
                        <mxPoint x="87" y="-1" as="offset"/>
                    </mxGeometry>
                </mxCell>
                <mxCell id="666" value="" style="endArrow=none;html=1;exitX=1;exitY=0.5;exitDx=0;exitDy=0;entryX=0;entryY=0.5;entryDx=0;entryDy=0;" edge="1" parent="1">
                    <mxGeometry width="50" height="50" relative="1" as="geometry">
                        <mxPoint x="3210" y="961" as="sourcePoint"/>
                        <mxPoint x="3380" y="960" as="targetPoint"/>
                    </mxGeometry>
                </mxCell>
                <mxCell id="667" value="GND = GND" style="edgeLabel;html=1;align=center;verticalAlign=middle;resizable=0;points=[];" vertex="1" connectable="0" parent="666">
                    <mxGeometry x="-0.8213" y="-1" relative="1" as="geometry">
                        <mxPoint x="115" y="-2" as="offset"/>
                    </mxGeometry>
                </mxCell>
                <mxCell id="533" value="" style="group" vertex="1" connectable="0" parent="1">
                    <mxGeometry x="3130" y="880" width="120" height="90" as="geometry"/>
                </mxCell>
                <mxCell id="534" value="" style="rounded=0;whiteSpace=wrap;html=1;fillColor=#fad7ac;strokeColor=#b46504;" vertex="1" parent="533">
                    <mxGeometry y="30" width="120" height="60" as="geometry"/>
                </mxCell>
                <mxCell id="535" value="" style="ellipse;whiteSpace=wrap;html=1;aspect=fixed;fillColor=#fad7ac;strokeColor=#b46504;" vertex="1" parent="533">
                    <mxGeometry x="10" y="40" width="40" height="40" as="geometry"/>
                </mxCell>
                <mxCell id="536" value="" style="ellipse;whiteSpace=wrap;html=1;aspect=fixed;fillColor=#fad7ac;strokeColor=#b46504;" vertex="1" parent="533">
                    <mxGeometry x="70" y="40" width="40" height="40" as="geometry"/>
                </mxCell>
                <mxCell id="537" value="HCSR 04" style="text;html=1;align=center;verticalAlign=middle;whiteSpace=wrap;rounded=0;" vertex="1" parent="533">
                    <mxGeometry x="30" width="60" height="30" as="geometry"/>
                </mxCell>
                <mxCell id="538" value="" style="endArrow=none;dashed=1;html=1;dashPattern=1 3;strokeWidth=2;strokeColor=#B3B3B3;" edge="1" parent="1">
                    <mxGeometry width="50" height="50" relative="1" as="geometry">
                        <mxPoint x="3111" y="1000" as="sourcePoint"/>
                        <mxPoint x="3110" y="870" as="targetPoint"/>
                    </mxGeometry>
                </mxCell>
                <mxCell id="539" value="" style="endArrow=none;dashed=1;html=1;dashPattern=1 3;strokeWidth=2;strokeColor=#B3B3B3;" edge="1" parent="1">
                    <mxGeometry width="50" height="50" relative="1" as="geometry">
                        <mxPoint x="3281" y="870" as="sourcePoint"/>
                        <mxPoint x="3110" y="870" as="targetPoint"/>
                    </mxGeometry>
                </mxCell>
                <mxCell id="540" value="Tong Sampah logam" style="text;html=1;align=center;verticalAlign=middle;whiteSpace=wrap;rounded=0;" vertex="1" parent="1">
                    <mxGeometry x="3136" y="840" width="130" height="30" as="geometry"/>
                </mxCell>
                <mxCell id="541" value="" style="endArrow=none;dashed=1;html=1;dashPattern=1 3;strokeWidth=2;strokeColor=#B3B3B3;" edge="1" parent="1">
                    <mxGeometry width="50" height="50" relative="1" as="geometry">
                        <mxPoint x="3282" y="1000" as="sourcePoint"/>
                        <mxPoint x="3281" y="870" as="targetPoint"/>
                    </mxGeometry>
                </mxCell>
                <mxCell id="542" value="" style="endArrow=none;dashed=1;html=1;dashPattern=1 3;strokeWidth=2;strokeColor=#B3B3B3;" edge="1" parent="1">
                    <mxGeometry width="50" height="50" relative="1" as="geometry">
                        <mxPoint x="3286" y="1000" as="sourcePoint"/>
                        <mxPoint x="3115" y="1000" as="targetPoint"/>
                    </mxGeometry>
                </mxCell>
                <mxCell id="547" value="HCSR 04" style="text;html=1;align=center;verticalAlign=middle;whiteSpace=wrap;rounded=0;" vertex="1" parent="1">
                    <mxGeometry x="3662" y="880" width="60" height="30" as="geometry"/>
                </mxCell>
                <mxCell id="514" value="HCSR 04" style="text;html=1;align=center;verticalAlign=middle;whiteSpace=wrap;rounded=0;" vertex="1" parent="1">
                    <mxGeometry x="3380" y="1130" width="60" height="30" as="geometry"/>
                </mxCell>
                <mxCell id="673" value="" style="endArrow=none;html=1;exitX=1;exitY=0.5;exitDx=0;exitDy=0;entryX=0;entryY=0.5;entryDx=0;entryDy=0;fillColor=#f8cecc;strokeColor=#b85450;" edge="1" parent="1">
                    <mxGeometry width="50" height="50" relative="1" as="geometry">
                        <mxPoint x="3500" y="929.48" as="sourcePoint"/>
                        <mxPoint x="3670" y="928.48" as="targetPoint"/>
                    </mxGeometry>
                </mxCell>
                <mxCell id="675" value="5V = VCC" style="edgeLabel;html=1;align=center;verticalAlign=middle;resizable=0;points=[];" vertex="1" connectable="0" parent="673">
                    <mxGeometry x="0.416" relative="1" as="geometry">
                        <mxPoint x="-50" y="-4" as="offset"/>
                    </mxGeometry>
                </mxCell>
                <mxCell id="676" value="" style="endArrow=none;html=1;exitX=1;exitY=0.5;exitDx=0;exitDy=0;entryX=0;entryY=0.5;entryDx=0;entryDy=0;fillColor=#d5e8d4;strokeColor=#82b366;" edge="1" parent="1">
                    <mxGeometry width="50" height="50" relative="1" as="geometry">
                        <mxPoint x="3500" y="939.48" as="sourcePoint"/>
                        <mxPoint x="3670" y="938.48" as="targetPoint"/>
                    </mxGeometry>
                </mxCell>
                <mxCell id="678" value="21 = ECHO" style="edgeLabel;html=1;align=center;verticalAlign=middle;resizable=0;points=[];" vertex="1" connectable="0" parent="676">
                    <mxGeometry x="0.0706" relative="1" as="geometry">
                        <mxPoint x="-21" y="-4" as="offset"/>
                    </mxGeometry>
                </mxCell>
                <mxCell id="679" value="" style="endArrow=none;html=1;exitX=1;exitY=0.5;exitDx=0;exitDy=0;entryX=0;entryY=0.5;entryDx=0;entryDy=0;fillColor=#d5e8d4;strokeColor=#82b366;" edge="1" parent="1">
                    <mxGeometry width="50" height="50" relative="1" as="geometry">
                        <mxPoint x="3500" y="949.8800000000001" as="sourcePoint"/>
                        <mxPoint x="3670" y="948.8800000000001" as="targetPoint"/>
                    </mxGeometry>
                </mxCell>
                <mxCell id="705" value="22 = TRIGER" style="edgeLabel;html=1;align=center;verticalAlign=middle;resizable=0;points=[];" vertex="1" connectable="0" parent="679">
                    <mxGeometry x="-0.6032" relative="1" as="geometry">
                        <mxPoint x="26" as="offset"/>
                    </mxGeometry>
                </mxCell>
                <mxCell id="682" value="" style="endArrow=none;html=1;exitX=1;exitY=0.5;exitDx=0;exitDy=0;entryX=0;entryY=0.5;entryDx=0;entryDy=0;" edge="1" parent="1">
                    <mxGeometry width="50" height="50" relative="1" as="geometry">
                        <mxPoint x="3500" y="959.48" as="sourcePoint"/>
                        <mxPoint x="3670" y="958.48" as="targetPoint"/>
                    </mxGeometry>
                </mxCell>
                <mxCell id="684" value="GND = GND" style="edgeLabel;html=1;align=center;verticalAlign=middle;resizable=0;points=[];" vertex="1" connectable="0" parent="682">
                    <mxGeometry x="-0.8213" y="-1" relative="1" as="geometry">
                        <mxPoint x="55" as="offset"/>
                    </mxGeometry>
                </mxCell>
                <mxCell id="543" value="" style="group" vertex="1" connectable="0" parent="1">
                    <mxGeometry x="3632" y="890" width="120" height="90" as="geometry"/>
                </mxCell>
                <mxCell id="544" value="" style="rounded=0;whiteSpace=wrap;html=1;fillColor=#fad7ac;strokeColor=#b46504;" vertex="1" parent="543">
                    <mxGeometry y="30" width="120" height="60" as="geometry"/>
                </mxCell>
                <mxCell id="545" value="" style="ellipse;whiteSpace=wrap;html=1;aspect=fixed;fillColor=#fad7ac;strokeColor=#b46504;" vertex="1" parent="543">
                    <mxGeometry x="10" y="40" width="40" height="40" as="geometry"/>
                </mxCell>
                <mxCell id="546" value="" style="ellipse;whiteSpace=wrap;html=1;aspect=fixed;fillColor=#fad7ac;strokeColor=#b46504;" vertex="1" parent="543">
                    <mxGeometry x="70" y="40" width="40" height="40" as="geometry"/>
                </mxCell>
                <mxCell id="686" value="" style="endArrow=none;html=1;strokeWidth=3;fillColor=#f8cecc;strokeColor=#b85450;entryX=0.846;entryY=0.995;entryDx=0;entryDy=0;exitX=0.102;exitY=0.543;exitDx=0;exitDy=0;exitPerimeter=0;entryPerimeter=0;" edge="1" parent="1" source="602" target="639">
                    <mxGeometry width="50" height="50" relative="1" as="geometry">
                        <mxPoint x="3430" y="910" as="sourcePoint"/>
                        <mxPoint x="3430" y="775.9700000000007" as="targetPoint"/>
                    </mxGeometry>
                </mxCell>
                <mxCell id="687" value="" style="endArrow=none;html=1;strokeWidth=3;fillColor=#f8cecc;strokeColor=#b85450;entryX=1;entryY=0.5;entryDx=0;entryDy=0;exitX=0.5;exitY=0;exitDx=0;exitDy=0;" edge="1" parent="1" source="647" target="638">
                    <mxGeometry width="50" height="50" relative="1" as="geometry">
                        <mxPoint x="3450" y="840" as="sourcePoint"/>
                        <mxPoint x="3500" y="790" as="targetPoint"/>
                        <Array as="points">
                            <mxPoint x="3550" y="680"/>
                            <mxPoint x="3490" y="680"/>
                            <mxPoint x="3490" y="740"/>
                        </Array>
                    </mxGeometry>
                </mxCell>
                <mxCell id="602" value="|" style="rounded=0;whiteSpace=wrap;html=1;fillColor=#fff2cc;strokeColor=#d6b656;rotation=90;" vertex="1" parent="1">
                    <mxGeometry x="3430" y="900" width="10" height="24.75" as="geometry"/>
                </mxCell>
                <mxCell id="688" value="" style="endArrow=none;html=1;" edge="1" parent="1">
                    <mxGeometry width="50" height="50" relative="1" as="geometry">
                        <mxPoint x="3385" y="970.8499999999999" as="sourcePoint"/>
                        <mxPoint x="3385" y="1070.85" as="targetPoint"/>
                    </mxGeometry>
                </mxCell>
                <mxCell id="692" value="GND = GND" style="edgeLabel;html=1;align=center;verticalAlign=middle;resizable=0;points=[];rotation=-90;" vertex="1" connectable="0" parent="688">
                    <mxGeometry x="-0.7865" relative="1" as="geometry">
                        <mxPoint y="49" as="offset"/>
                    </mxGeometry>
                </mxCell>
                <mxCell id="693" value="" style="endArrow=none;html=1;fillColor=#d5e8d4;strokeColor=#82b366;" edge="1" parent="1">
                    <mxGeometry width="50" height="50" relative="1" as="geometry">
                        <mxPoint x="3399.95" y="970.8499999999999" as="sourcePoint"/>
                        <mxPoint x="3399.95" y="1070.85" as="targetPoint"/>
                    </mxGeometry>
                </mxCell>
                <mxCell id="696" value="ECHO = 11" style="edgeLabel;html=1;align=center;verticalAlign=middle;resizable=0;points=[];rotation=-90;" vertex="1" connectable="0" parent="693">
                    <mxGeometry x="-0.7865" relative="1" as="geometry">
                        <mxPoint y="48" as="offset"/>
                    </mxGeometry>
                </mxCell>
                <mxCell id="697" value="" style="endArrow=none;html=1;fillColor=#d5e8d4;strokeColor=#82b366;" edge="1" parent="1">
                    <mxGeometry width="50" height="50" relative="1" as="geometry">
                        <mxPoint x="3450" y="970" as="sourcePoint"/>
                        <mxPoint x="3520" y="1070" as="targetPoint"/>
                        <Array as="points">
                            <mxPoint x="3450" y="1030"/>
                            <mxPoint x="3520" y="1030"/>
                        </Array>
                    </mxGeometry>
                </mxCell>
                <mxCell id="713" value="23 = DATA" style="edgeLabel;html=1;align=center;verticalAlign=middle;resizable=0;points=[];" vertex="1" connectable="0" parent="697">
                    <mxGeometry x="-0.0837" y="-1" relative="1" as="geometry">
                        <mxPoint x="16" y="-1" as="offset"/>
                    </mxGeometry>
                </mxCell>
                <mxCell id="701" value="" style="endArrow=none;html=1;fillColor=#f8cecc;strokeColor=#b85450;" edge="1" parent="1">
                    <mxGeometry width="50" height="50" relative="1" as="geometry">
                        <mxPoint x="3424.95" y="970.8499999999999" as="sourcePoint"/>
                        <mxPoint x="3424.95" y="1070.85" as="targetPoint"/>
                    </mxGeometry>
                </mxCell>
                <mxCell id="704" value="VCC = 5V" style="edgeLabel;html=1;align=center;verticalAlign=middle;resizable=0;points=[];rotation=-90;" vertex="1" connectable="0" parent="701">
                    <mxGeometry x="-0.7865" relative="1" as="geometry">
                        <mxPoint y="53" as="offset"/>
                    </mxGeometry>
                </mxCell>
                <mxCell id="707" value="" style="endArrow=none;html=1;fillColor=#f8cecc;strokeColor=#b85450;exitX=0.492;exitY=1.024;exitDx=0;exitDy=0;exitPerimeter=0;" edge="1" parent="1" source="601">
                    <mxGeometry width="50" height="50" relative="1" as="geometry">
                        <mxPoint x="3499.8900000000003" y="970.8499999999999" as="sourcePoint"/>
                        <mxPoint x="3510" y="1070" as="targetPoint"/>
                        <Array as="points">
                            <mxPoint x="3440" y="1040"/>
                            <mxPoint x="3510" y="1040"/>
                        </Array>
                    </mxGeometry>
                </mxCell>
                <mxCell id="709" value="&lt;span style=&quot;font-family: monospace; font-size: 0px; text-align: start; background-color: rgb(251, 251, 251);&quot;&gt;%3CmxGraphModel%3E%3Croot%3E%3CmxCell%20id%3D%220%22%2F%3E%3CmxCell%20id%3D%221%22%20parent%3D%220%22%2F%3E%3CmxCell%20id%3D%222%22%20value%3D%22VCC%20%3D%205V%22%20style%3D%22edgeLabel%3Bhtml%3D1%3Balign%3Dcenter%3BverticalAlign%3Dmiddle%3Bresizable%3D0%3Bpoints%3D%5B%5D%3Brotation%3D-90%3B%22%20vertex%3D%221%22%20connectable%3D%220%22%20parent%3D%221%22%3E%3CmxGeometry%20x%3D%221314.9500000000007%22%20y%3D%221804.48829787234%22%20as%3D%22geometry%22%2F%3E%3C%2FmxCell%3E%3C%2Froot%3E%3C%2FmxGraphModel%3E&lt;/span&gt;" style="edgeLabel;html=1;align=center;verticalAlign=middle;resizable=0;points=[];" vertex="1" connectable="0" parent="707">
                    <mxGeometry x="0.2922" y="-1" relative="1" as="geometry">
                        <mxPoint as="offset"/>
                    </mxGeometry>
                </mxCell>
                <mxCell id="710" value="&lt;span style=&quot;color: rgb(0, 0, 0);&quot;&gt;VCC = 5V&lt;/span&gt;" style="edgeLabel;html=1;align=center;verticalAlign=middle;resizable=0;points=[];" vertex="1" connectable="0" parent="707">
                    <mxGeometry x="0.209" relative="1" as="geometry">
                        <mxPoint as="offset"/>
                    </mxGeometry>
                </mxCell>
                <mxCell id="711" value="" style="endArrow=none;html=1;fillColor=#d5e8d4;strokeColor=#82b366;" edge="1" parent="1">
                    <mxGeometry width="50" height="50" relative="1" as="geometry">
                        <mxPoint x="3411.25" y="970.8499999999999" as="sourcePoint"/>
                        <mxPoint x="3411.25" y="1070.85" as="targetPoint"/>
                    </mxGeometry>
                </mxCell>
                <mxCell id="712" value="TRIGER = 12" style="edgeLabel;html=1;align=center;verticalAlign=middle;resizable=0;points=[];rotation=-90;" vertex="1" connectable="0" parent="711">
                    <mxGeometry x="-0.7865" relative="1" as="geometry">
                        <mxPoint y="48" as="offset"/>
                    </mxGeometry>
                </mxCell>
                <mxCell id="714" value="" style="endArrow=none;html=1;fillColor=#d5e8d4;strokeColor=#82b366;entryX=0.75;entryY=0;entryDx=0;entryDy=0;" edge="1" parent="1">
                    <mxGeometry width="50" height="50" relative="1" as="geometry">
                        <mxPoint x="3460" y="969.25" as="sourcePoint"/>
                        <mxPoint x="3530" y="1069.9999999999986" as="targetPoint"/>
                        <Array as="points">
                            <mxPoint x="3460" y="1018.4000000000001"/>
                            <mxPoint x="3530" y="1018.4000000000001"/>
                        </Array>
                    </mxGeometry>
                </mxCell>
                <mxCell id="716" value="&lt;span style=&quot;color: rgb(0, 0, 0);&quot;&gt;GND = GND&lt;/span&gt;" style="edgeLabel;html=1;align=center;verticalAlign=middle;resizable=0;points=[];" vertex="1" connectable="0" parent="714">
                    <mxGeometry x="-0.0513" relative="1" as="geometry">
                        <mxPoint as="offset"/>
                    </mxGeometry>
                </mxCell>
                <mxCell id="589" value="" style="group" vertex="1" connectable="0" parent="1">
                    <mxGeometry x="3490" y="1070" width="60" height="60" as="geometry"/>
                </mxCell>
                <mxCell id="590" value="" style="rounded=0;whiteSpace=wrap;html=1;fillColor=#f8cecc;strokeColor=#b85450;" vertex="1" parent="589">
                    <mxGeometry x="10" y="-8.399999999999999" width="40" height="43.199999999999996" as="geometry"/>
                </mxCell>
                <mxCell id="591" value="" style="rounded=0;whiteSpace=wrap;html=1;fillColor=#f8cecc;strokeColor=#b85450;" vertex="1" parent="589">
                    <mxGeometry width="60" height="52.8" as="geometry"/>
                </mxCell>
                <mxCell id="592" value="" style="rounded=0;whiteSpace=wrap;html=1;strokeColor=default;" vertex="1" parent="589">
                    <mxGeometry x="10" y="9.6" width="10" height="7.199999999999999" as="geometry"/>
                </mxCell>
                <mxCell id="593" value="" style="rounded=0;whiteSpace=wrap;html=1;strokeColor=default;" vertex="1" parent="589">
                    <mxGeometry x="40" y="9.6" width="10" height="7.199999999999999" as="geometry"/>
                </mxCell>
                <mxCell id="594" value="" style="rounded=0;whiteSpace=wrap;html=1;strokeColor=default;" vertex="1" parent="589">
                    <mxGeometry x="25" y="9.6" width="10" height="7.199999999999999" as="geometry"/>
                </mxCell>
                <mxCell id="595" value="" style="rounded=0;whiteSpace=wrap;html=1;strokeColor=default;" vertex="1" parent="589">
                    <mxGeometry x="10" y="22.8" width="10" height="7.199999999999999" as="geometry"/>
                </mxCell>
                <mxCell id="596" value="" style="rounded=0;whiteSpace=wrap;html=1;strokeColor=default;" vertex="1" parent="589">
                    <mxGeometry x="25" y="22.8" width="10" height="7.199999999999999" as="geometry"/>
                </mxCell>
                <mxCell id="597" value="" style="rounded=0;whiteSpace=wrap;html=1;strokeColor=default;" vertex="1" parent="589">
                    <mxGeometry x="40" y="22.8" width="10" height="7.199999999999999" as="geometry"/>
                </mxCell>
                <mxCell id="598" value="" style="rounded=0;whiteSpace=wrap;html=1;strokeColor=default;" vertex="1" parent="589">
                    <mxGeometry x="10" y="34.8" width="10" height="7.199999999999999" as="geometry"/>
                </mxCell>
                <mxCell id="599" value="" style="rounded=0;whiteSpace=wrap;html=1;strokeColor=default;" vertex="1" parent="589">
                    <mxGeometry x="25" y="34.8" width="10" height="7.199999999999999" as="geometry"/>
                </mxCell>
                <mxCell id="600" value="" style="rounded=0;whiteSpace=wrap;html=1;strokeColor=default;" vertex="1" parent="589">
                    <mxGeometry x="40" y="34.8" width="10" height="7.199999999999999" as="geometry"/>
                </mxCell>
            </root>
        </mxGraphModel>
    </diagram>
</mxfile>